
<svg width="1085" height="961" viewBox="0 0 1085 961" fill="none" xmlns="http://www.w3.org/2000/svg">
<path d="M304.049 283.029L92.7133 405.044L214.728 616.38L426.064 494.365L304.049 283.029Z" fill="#000000"/>
<path fill-rule="evenodd" clip-rule="evenodd" d="M819.126 289.114C877.971 255.14 953.216 275.302 987.19 334.147C1021.16 392.992 1001 468.237 942.157 502.211L730.568 624.373C730.539 624.322 730.51 624.272 730.481 624.222C705.21 580.453 649.243 565.456 605.474 590.726C561.705 615.996 546.709 671.964 571.979 715.733L572.066 715.883L360.984 837.752C302.727 871.386 228.397 851.962 193.951 794.473L192.92 792.719C158.945 733.874 179.107 658.629 237.952 624.655L819.126 289.114Z" fill="#000000"/>
<path d="M615.642 608.337C649.685 588.683 693.215 600.347 712.87 634.389C732.524 668.432 720.86 711.962 686.818 731.617C652.775 751.271 609.245 739.607 589.59 705.565C569.936 671.522 581.6 627.992 615.642 608.337Z" fill="#000000"/>
</svg>